<svg width="20" height="20" fill="none" xmlns="http://www.w3.org/2000/svg"><path d="M10.229 1A9.227 9.227 0 0 0 1 10.229a9.227 9.227 0 0 0 6.31 8.755c.461.087.63-.198.63-.444 0-.219-.007-.8-.01-1.569-2.568.557-3.11-1.238-3.11-1.238-.42-1.065-1.026-1.35-1.026-1.35-.836-.571.065-.56.065-.56.926.065 1.413.95 1.413.95.823 1.412 2.16 1.004 2.688.768.083-.597.32-1.004.584-1.234-2.05-.231-4.203-1.025-4.203-4.56 0-1.008.357-1.831.95-2.477-.104-.233-.416-1.171.08-2.442 0 0 .773-.248 2.538.945a8.847 8.847 0 0 1 2.307-.311 8.847 8.847 0 0 1 2.307.311c1.754-1.193 2.527-.945 2.527-.945.496 1.27.184 2.209.092 2.442.588.646.946 1.469.946 2.476 0 3.546-2.157 4.326-4.21 4.553.322.277.622.843.622 1.707 0 1.235-.011 2.227-.011 2.527 0 .243.161.531.634.439a9.197 9.197 0 0 0 6.334-8.744A9.229 9.229 0 0 0 10.228 1Z" fill="#323E35"/></svg>