<svg width="46" height="26" viewBox="0 0 46 26" fill="none" xmlns="http://www.w3.org/2000/svg">
<path d="M5.99812 24.2229C8.20044 24.2229 9.55571 22.9479 10.2779 21.8066H10.4384L10.0729 24H13.8177L16.8492 5.73946H13.0509L11.9096 12.605H11.7937C11.4816 11.4905 10.6078 10.1263 8.31635 10.1263C5.30265 10.1263 2.37811 12.4623 1.60239 17.1701C0.84451 21.7531 2.85959 24.2229 5.99812 24.2229ZM7.66546 21.2003C5.79304 21.2003 5.08866 19.5419 5.48989 17.1523C5.87329 14.7806 7.11265 13.1489 8.99399 13.1489C10.8397 13.1489 11.6421 14.7092 11.2409 17.1523C10.8397 19.5954 9.4933 21.2003 7.66546 21.2003ZM15.7387 24H23.5405C27.6419 24 30.1831 21.8512 30.6735 18.9534C31.1104 16.2607 29.4519 14.6022 27.3834 14.522L27.419 14.3437C29.3628 13.9157 31.0034 12.5604 31.3689 10.4205C31.8326 7.68321 30.1117 5.73946 26.0816 5.73946H18.7702L15.7387 24ZM20.1344 20.8436L20.928 15.9932H24.1557C26.037 15.9932 26.991 17.0631 26.7503 18.57C26.5274 19.9431 25.4218 20.8436 23.2819 20.8436H20.1344ZM21.3738 13.3807L22.1228 8.86016H25.0473C26.7503 8.86016 27.5795 9.73395 27.3655 11.0625C27.1426 12.498 25.8052 13.3807 24.2359 13.3807H21.3738Z" fill="white"/>
<path d="M32.8552 23.7341C33.8726 23.7341 34.8574 22.8632 34.9388 21.7807C35.0283 20.7226 34.19 19.8598 33.1482 19.8598C32.0657 19.8598 31.1052 20.7063 31.032 21.7807C30.9669 22.8632 31.7564 23.7341 32.8552 23.7341Z" fill="#00EE38"/>
</svg>
