<svg width="46" height="26" fill="none" xmlns="http://www.w3.org/2000/svg"><path d="M5.998 24.223c2.202 0 3.558-1.275 4.28-2.416h.16L10.073 24h3.745l3.031-18.26h-3.798l-1.141 6.865h-.116c-.312-1.114-1.186-2.479-3.478-2.479-3.013 0-5.938 2.336-6.714 7.044-.757 4.583 1.258 7.053 4.396 7.053ZM7.665 21.2c-1.872 0-2.576-1.658-2.175-4.048.383-2.371 1.623-4.003 3.504-4.003 1.846 0 2.648 1.56 2.247 4.003-.401 2.443-1.748 4.048-3.576 4.048ZM15.74 24h7.802c4.1 0 6.642-2.149 7.133-5.047.436-2.692-1.222-4.35-3.29-4.431l.035-.178c1.944-.428 3.584-1.784 3.95-3.923.464-2.738-1.257-4.682-5.287-4.682H18.77L15.74 24Zm4.395-3.156.794-4.85h3.228c1.881 0 2.835 1.07 2.594 2.576-.223 1.373-1.328 2.274-3.468 2.274h-3.148Zm1.24-7.463.749-4.52h2.924c1.703 0 2.532.873 2.319 2.201-.223 1.436-1.56 2.319-3.13 2.319h-2.862Z" fill="#000"/><path d="M32.855 23.734c1.018 0 2.002-.871 2.084-1.954.09-1.058-.749-1.92-1.79-1.92-1.083 0-2.044.846-2.117 1.92-.065 1.083.724 1.954 1.823 1.954Z" fill="#00EE38"/></svg>