<svg width="34" height="34" viewBox="0 0 34 34" fill="none" xmlns="http://www.w3.org/2000/svg">
<g clip-path="url(#clip0_332_1759)">
<path d="M17 34C12.4913 34 8.1673 32.2089 4.97918 29.0208C1.79107 25.8327 5.46013e-07 21.5087 7.43094e-07 17C9.40174e-07 12.4913 1.79107 8.1673 4.97918 4.97918C8.1673 1.79106 12.4913 -9.40174e-07 17 -7.43094e-07C21.5087 -5.46013e-07 25.8327 1.79106 29.0208 4.97918C32.2089 8.1673 34 12.4913 34 17C34 21.5087 32.2089 25.8327 29.0208 29.0208C25.8327 32.2089 21.5087 34 17 34V34ZM11.0436 21.454C10.9421 21.552 10.8612 21.6693 10.8055 21.7989C10.7498 21.9285 10.7205 22.0679 10.7193 22.209C10.7181 22.3501 10.745 22.49 10.7984 22.6206C10.8518 22.7512 10.9307 22.8698 11.0305 22.9695C11.1302 23.0693 11.2488 23.1482 11.3794 23.2016C11.51 23.255 11.6499 23.2819 11.791 23.2807C11.9321 23.2795 12.0715 23.2502 12.2011 23.1945C12.3307 23.1388 12.448 23.0579 12.546 22.9564L21.25 14.2524L21.25 20.1344C21.25 20.4162 21.3619 20.6864 21.5612 20.8857C21.7605 21.0849 22.0307 21.1969 22.3125 21.1969C22.5943 21.1969 22.8645 21.0849 23.0638 20.8857C23.2631 20.6864 23.375 20.4162 23.375 20.1344L23.375 11.6875C23.375 11.4057 23.2631 11.1355 23.0638 10.9362C22.8645 10.7369 22.5943 10.625 22.3125 10.625L13.8656 10.625C13.5838 10.625 13.3136 10.7369 13.1143 10.9362C12.9151 11.1355 12.8031 11.4057 12.8031 11.6875C12.8031 11.9693 12.9151 12.2395 13.1143 12.4388C13.3136 12.6381 13.5838 12.75 13.8656 12.75L19.7476 12.75L11.0436 21.454Z" fill="#FAFBFC"/>
</g>
<defs>
<clipPath id="clip0_332_1759">
<rect width="34" height="34" fill="white" transform="translate(34) rotate(90)"/>
</clipPath>
</defs>
</svg>
