<svg width="20" height="20" fill="none" xmlns="http://www.w3.org/2000/svg"><path d="M19.69 3.882a8.063 8.063 0 0 1-2.316.65 4.045 4.045 0 0 0 1.77-2.24c-.782.47-1.647.8-2.56.988C15.84 2.47 14.795 2 13.609 2c-2.211 0-4.018 1.807-4.018 4.038 0 .32.037.63.103.922a11.477 11.477 0 0 1-8.32-4.216 3.995 3.995 0 0 0-.546 2.023c0 1.402.706 2.645 1.798 3.35-.668 0-1.29-.188-1.835-.47v.028a4.04 4.04 0 0 0 3.237 3.963 3.97 3.97 0 0 1-1.816.066 4.028 4.028 0 0 0 3.764 2.804A8.02 8.02 0 0 1 .96 16.24c-.32 0-.64-.019-.96-.056A11.43 11.43 0 0 0 6.193 18c7.416 0 11.492-6.155 11.492-11.492 0-.179 0-.348-.01-.527a8.067 8.067 0 0 0 2.014-2.099Z" fill="#323E35"/></svg>